<svg width="1024" height="1024" viewBox="0 0 1024 1024" fill="none" xmlns="http://www.w3.org/2000/svg">
<rect width="1024" height="1024" rx="220" fill="#007AFF"/>
<path d="M512 250C367.305 250 250 367.305 250 512C250 656.695 367.305 774 512 774C656.695 774 774 656.695 774 512C774 367.305 656.695 250 512 250ZM512 700C408.167 700 324 615.833 324 512C324 408.167 408.167 324 512 324C615.833 324 700 408.167 700 512C700 615.833 615.833 700 512 700Z" fill="white"/>
<rect x="472" y="400" width="80" height="224" rx="40" fill="white"/>
<circle cx="512" cy="512" r="60" fill="#007AFF"/>
<path d="M700 300L750 250M750 300L700 250" stroke="white" stroke-width="40" stroke-linecap="round"/>
</svg>